<?xml version="1.0" encoding="utf-8"?>
<!-- Generator: Adobe Illustrator 19.0.0, SVG Export Plug-In . SVG Version: 6.00 Build 0)  -->
<svg version="1.1" id="Layer_1" xmlns="http://www.w3.org/2000/svg" xmlns:xlink="http://www.w3.org/1999/xlink" x="0px" y="0px"
	 viewBox="0 0 94.1 95.8" style="enable-background:new 0 0 94.1 95.8;" xml:space="preserve">
<style type="text/css">
	.st0{fill-rule:evenodd;clip-rule:evenodd;fill:#797779;}
	.st1{fill-rule:evenodd;clip-rule:evenodd;fill:#B72025;}
	.st2{fill-rule:evenodd;clip-rule:evenodd;fill:#C62828;}
	.st3{fill-rule:evenodd;clip-rule:evenodd;fill:#C24A4A;}
	.st4{fill-rule:evenodd;clip-rule:evenodd;fill:#F57F20;}
	.st5{fill-rule:evenodd;clip-rule:evenodd;fill:#F9A823;}
	.st6{fill-rule:evenodd;clip-rule:evenodd;fill:#F3BE49;}
	.st7{fill-rule:evenodd;clip-rule:evenodd;fill:#1E5F30;}
	.st8{fill-rule:evenodd;clip-rule:evenodd;fill:#317E3D;}
	.st9{fill-rule:evenodd;clip-rule:evenodd;fill:#378F43;}
	.st10{fill:#FFFFFF;}
</style>
<path class="st0" d="M369.1-107.3"/>
<path class="st1" d="M67.9,27.9c0.7-1.6,1.6-3.1,2.5-4.7c3.5-6.4,7-12.7,10.6-19.1c0.2-0.3,0.3-0.7,0.7-1c0.4,1.2,0.7,2.4,1.1,3.6
	c3.7,12.9,7.4,25.9,11.2,38.8c0.1,0.3,0.3,0.6,0.2,0.9c-1-0.1-2,0.2-3,0.2c-1.9,0.1-3.8,0.1-5.6,0.1c-2.8,0.1-5.5,0.3-8.3,0.2
	c-0.1,0-0.1,0-0.2-0.1c0-0.4-0.2-0.7-0.4-1.1c-2.1-4.5-4.3-9-6.5-13.5C69.4,30.8,68.8,29.3,67.9,27.9z"/>
<path class="st2" d="M77.1,46.8c2.8,0.1,5.5-0.1,8.3-0.2c1.9,0,3.8,0,5.6-0.1c1,0,2-0.3,3-0.2c0.1,0.3,0,0.6-0.1,0.9
	c-2.3,9.3-4.6,18.6-6.9,27.9c-1.2,4.8-2.4,9.7-3.6,14.5c-0.1,0.3-0.2,0.7-0.3,1c-0.4-0.2-0.5-0.6-0.7-0.8
	c-4.1-6.8-8.2-13.6-12.3-20.4c-0.1-0.1-0.1-0.3-0.2-0.4c1.4-4.3,2.8-8.6,4.2-12.9C75.2,53,76.1,49.9,77.1,46.8z"/>
<path class="st3" d="M77,46.9c-0.9,0.1-1.8,0.2-2.7,0.2c-3.3-0.1-6.6,0.2-9.9,0.2c-2.4,0-4.9,0.2-7.3,0.1c0.1-0.2,0.1-0.4,0.2-0.5
	c3.4-6.2,6.9-12.4,10.3-18.7c0.1-0.1,0.2-0.2,0.3-0.4c0.9,1.4,1.5,2.9,2.2,4.4c2.2,4.5,4.3,9,6.5,13.5C76.7,46.2,77,46.5,77,46.9z"
	/>
<path class="st4" d="M62.6,71.4c1.1,1.4,1.9,3,2.8,4.5c3.8,6.2,7.5,12.5,11.2,18.7c0.2,0.3,0.5,0.6,0.5,1.2
	c-1.3-0.3-2.5-0.6-3.7-0.9c-13.1-3.3-26.1-6.5-39.2-9.8c-0.3-0.1-0.6-0.1-0.9-0.3c0.6-0.8,0.9-1.8,1.4-2.7c0.9-1.7,1.8-3.3,2.7-4.9
	c1.3-2.4,2.5-4.9,4-7.3c0,0,0.1-0.1,0.1-0.1c0.4,0.2,0.8,0.2,1.1,0.2c5,0.4,9.9,0.8,14.9,1.2C59.3,71.3,60.9,71.5,62.6,71.4z"/>
<path class="st5" d="M41.4,69.8c-1.4,2.4-2.7,4.9-4,7.3c-0.9,1.6-1.8,3.3-2.7,4.9c-0.5,0.9-0.8,1.9-1.4,2.7
	c-0.3-0.1-0.5-0.3-0.7-0.5c-6.9-6.7-13.8-13.3-20.6-20c-3.6-3.5-7.2-6.9-10.7-10.4c-0.2-0.2-0.5-0.5-0.7-0.8
	c0.4-0.2,0.7-0.1,1.1-0.1c7.9-0.1,15.9-0.3,23.8-0.4c0.2,0,0.3,0,0.5,0.1c3,3.4,6,6.7,9,10.1C37,65,39.2,67.4,41.4,69.8z"/>
<path class="st6" d="M41.6,69.7c0.4-0.8,0.7-1.7,1.2-2.4c1.7-2.8,3.2-5.8,4.8-8.7c1.2-2.1,2.3-4.3,3.6-6.4c0.1,0.1,0.3,0.3,0.4,0.4
	c3.7,6.1,7.3,12.2,11,18.3c0.1,0.1,0.1,0.3,0.2,0.4c-1.7,0.1-3.3-0.2-4.9-0.3c-5-0.4-9.9-0.8-14.9-1.2
	C42.3,69.9,41.9,69.9,41.6,69.7z"/>
<g>
	<path class="st7" d="M28.3,45c-1.7,0.3-3.5,0.2-5.3,0.3C15.8,45.7,8.5,46,1.3,46.4c-0.4,0-0.8,0.1-1.3-0.1c0.9-1,1.7-1.9,2.5-2.8
		c9-10,18.1-19.9,27.1-29.9c0.2-0.2,0.4-0.5,0.7-0.6c0.5,0.9,1.2,1.6,1.8,2.5c1,1.6,2,3.2,3.1,4.7c1.5,2.3,3.1,4.6,4.6,7
		c0,0.1,0,0.1,0,0.2c-0.4,0.2-0.5,0.6-0.7,0.9c-2.7,4.2-5.4,8.4-8.1,12.6C30,42.2,29,43.5,28.3,45z"/>
	<path class="st8" d="M39.7,27.1c-1.4-2.4-3-4.6-4.6-7c-1-1.6-2-3.2-3.1-4.7c-0.6-0.8-1.3-1.6-1.8-2.5c0.2-0.2,0.5-0.3,0.8-0.4
		c9.1-2.9,18.2-5.9,27.4-8.8c4.7-1.5,9.5-3.1,14.2-4.6c0.3-0.1,0.7-0.2,1-0.3c0,0.4-0.2,0.7-0.4,1C69.8,6.9,66.1,14,62.5,21.1
		c-0.1,0.1-0.2,0.2-0.3,0.4c-4.4,1.1-8.8,2.1-13.1,3.2C46,25.5,42.8,26.3,39.7,27.1z"/>
	<path class="st9" d="M39.7,27.3c0.5,0.7,1.2,1.4,1.6,2.2c1.7,2.8,3.6,5.5,5.4,8.3c1.3,2.1,2.7,4,3.9,6.1c-0.2,0-0.4,0.1-0.6,0.1
		c-7.1,0.4-14.2,0.7-21.3,1c-0.1,0-0.3,0-0.5,0c0.7-1.5,1.7-2.8,2.6-4.2c2.7-4.2,5.4-8.4,8.1-12.6C39.2,27.8,39.3,27.5,39.7,27.3z"
		/>
</g>
<rect x="101.5" style="fill-rule:evenodd;clip-rule:evenodd;fill:none;" width="215.4" height="112"/>
<text transform="matrix(1.1745 0 0 1 101.4521 19.9917)" style="display:none;"><tspan x="0" y="0" style="display:inline;fill:#FFFFFF; font-family:'HelveticaNeueCE-Thin'; font-size:28px;">Apple</tspan><tspan x="0" y="34.8" style="display:inline;fill:#FFFFFF; font-family:'HelveticaNeue'; font-size:28px;">Developers</tspan><tspan x="0" y="69.6" style="display:inline;fill:#FFFFFF; font-family:'HelveticaNeueCE-Thin'; font-size:28px;">Group</tspan></text>
<rect x="-64.2" y="415.3" class="st10" width="0" height="2.7"/>
</svg>
